<?xml version="1.0" encoding="UTF-8"?><svg xmlns="http://www.w3.org/2000/svg" viewBox="0 0 2018.03 465.46"><defs><style>.d{fill:#fff;}.e{fill:none;stroke:#1f8fce;stroke-linecap:round;stroke-miterlimit:10;stroke-width:5px;}.f{fill:#1f8fce;}</style></defs><g id="a"/><g id="b"><g id="c"><g><g><g><path class="d" d="M184.43,465.46c-.05,0-.09-.05-.09-.09v-24.63c0-1.56,.28-3.1,.81-4.57h0c17.73-48.11,46.69-74.79,106.15-97.34v126.54s-.04,.09-.09,.09h-106.78Z"/><path class="d" d="M413.54,465.46l-111.92-130.39c40.07-14.09,93.12-26.76,144.86-38.39l142.25,168.78h-175.19Z"/><path class="f" d="M184.33,393.9c0-9.15,.92-18.28,2.92-27.21,11.3-50.52,44.78-94.09,93.87-121.3,26.31-14.59,60.16-25.4,91.59-29.55,4.94-.65,9.91-.97,14.88-1.25,46.69-2.6,70.15-44.54,71.3-64.22,1.84-31.45-19.1-67.99-69.41-73.89l-.2-.02-163.95,2.45c-44.43,0-77.25-31.87-77.98-75.79-.01-.76,.28-1.49,.82-2.03,.54-.55,1.27-.86,2.04-.87l267.2-.22c48.9,3.17,89.79,24.31,115.14,59.55,12.08,16.8,20.41,36.66,24.08,57.43,3.54,20.02,2.77,41.02-2.2,60.85,0,0-1.21,4.34-1.36,4.96l-.06,.24c-6.71,23.18-18.88,44.63-35.22,62.06-18.71,19.96-42.53,34.68-70.8,43.75h-.05c-54.28,12.19-110.19,25.53-151.46,40.48-.73,.25-1.48,.53-2.23,.81-58.9,21.67-89.7,46.86-108.92,90.46v-26.71Z"/></g><g><g><g><rect class="f" x="30.69" y="36.48" width="45.19" height="46.52" rx="8.25" ry="8.25"/><rect class="f" x="97.63" y="56.29" width="33.8" height="34.79" rx="6.17" ry="6.17"/><rect class="f" x="192.76" y="127.05" width="27.72" height="28.53" rx="5.06" ry="5.06"/><rect class="f" x="166.19" y="274.36" width="33.03" height="34" rx="6.03" ry="6.03"/><rect class="f" x="83.61" y="169" width="50.3" height="51.78" rx="9.18" ry="9.18"/></g><g><rect class="d" x="151.7" y="166.15" width="29" height="29.85" rx="5.29" ry="5.29"/><rect class="d" x="128.02" y="234.26" width="37" height="38.09" rx="6.75" ry="6.75"/><rect class="d" y="83.54" width="19.43" height="20" rx="3.55" ry="3.55"/><rect class="d" x="70.57" y="95.13" width="26.23" height="27" rx="4.79" ry="4.79"/><rect class="d" x="31.92" y="127.98" width="45.66" height="47" rx="8.33" ry="8.33"/><rect class="d" x="121.18" y="100.23" width="53" height="54.56" rx="9.67" ry="9.67"/><rect class="d" x="186.88" y="189.6" width="56" height="57.65" rx="10.22" ry="10.22"/></g></g><path class="d" d="M394.17,128.68l-105.89,94.61c-1.88,1.68-4.87,.35-4.87-2.18v-16.99c0-14.54-11.79-26.33-26.33-26.33h-4.83c-5.74,0-10.39-4.65-10.39-10.39v-47.6c0-6.41,5.16-11.61,11.54-11.61h133.02c10.72,0,15.76,13.33,7.74,20.49Z"/></g></g><g><path class="d" d="M1265.77,128.08c.49-.16,.98-.33,1.47-.49,16.34,21.06,32.67,42.13,49.8,64.21,17.84-22.11,35-43.36,52.15-64.61,.55,.27,1.11,.53,1.66,.8v86.15c7.31,0,13.95,.14,20.58-.11,1.4-.05,3.32-1.2,4.02-2.41,6.37-11.03,12.55-22.18,18.68-33.35,.66-1.21,.87-2.81,.87-4.23,.07-38.68,.04-77.37,.15-116.05,0-3.5-1.18-4.84-4.69-4.78-8.78,.15-17.56,.01-26.34,.06-6.03,.04-10.74,2.49-14.48,7.37-9,11.79-18.23,23.4-27.37,35.08-7.95,10.17-15.91,20.34-24.13,30.85-1.54-1.83-2.7-3.01-3.63-4.35-14.71-21.08-29.54-42.09-43.95-63.37-3.08-4.54-6.38-6.41-11.74-6.27-9.82,.25-19.66,.24-29.47-.19-5.42-.24-6.59,1.86-6.57,6.88,.13,49.56,.03,99.11,.02,148.67,0,2.01,.2,4.03,.3,5.95h42.69v-85.8Zm361.91,86.41c11.77,0,23.21-.3,34.63,.13,5.7,.22,7.02-1.85,6.97-7.17-.22-26.56-.09-53.11-.07-79.67,0-1.07,.15-2.15,.3-4.15,23.38,25.02,45.89,49.46,68.81,73.51,19.26,20.21,11.78,17.71,40.78,17.56,15.54-.08,23.17-7.53,23.25-23.12,.23-44.54,.11-89.08,.26-133.62,.01-4.03-1.2-5.54-5.36-5.46-10.24,.2-20.5,.26-30.73-.14-5.33-.21-6.7,1.74-6.67,6.83,.18,28.02,.04,56.04,.01,84.06,0,2.18,0,4.35,0,6.53-.83,.49-1.66,.99-2.49,1.48-1.38-2.09-2.49-4.43-4.17-6.24-26.36-28.59-52.86-57.04-79.12-85.71-4.14-4.52-8.49-6.91-14.68-6.69-8.14,.29-16.33,.36-24.45-.16-6.1-.39-7.69,1.75-7.67,7.72,.2,49.14,.08,98.28,.07,147.43,0,2.05,.19,4.1,.32,6.88Zm-938.75-.13v-50.83c6.18,0,11.41-.35,16.57,.15,2.36,.23,5.21,1.57,6.72,3.35,12.28,14.52,24.27,29.29,36.46,43.89,1.23,1.47,3.21,3.26,4.87,3.29,16.39,.25,32.79,.15,50.85,.15-15.96-18.82-30.79-36.31-45.4-53.53,8.55-3.68,16.57-6.3,23.77-10.36,32.21-18.17,32.48-69.24,.18-87.19-8.56-4.76-18.75-8.78-28.34-9.13-34.23-1.25-68.53-.83-102.8-.79-1.67,0-4.74,2.34-4.79,3.68-.4,10.73-.22,21.49-.22,32.75,3.48,0,5.96,0,8.45,0,26.35,.06,52.7,.08,79.04,.23,3.74,.02,7.54,.32,11.2,1.05,8.5,1.7,13.82,7.62,14.68,15.79,.95,8.98-2.98,16.6-11.17,19.72-4.18,1.59-8.93,2.3-13.43,2.35-26.76,.29-53.53,.26-80.3,.37-2.66,.01-5.33,.24-8.31,.38v84.7h41.96Zm434.41-76.64c29.27-28.13,58.17-55.92,88.34-84.92-19.72,0-37.44-.25-55.14,.24-3.01,.08-6.41,2.86-8.83,5.22-22.06,21.4-43.93,42.99-65.89,64.49-1.03,1.01-2.29,1.78-4.43,3.43V52.37c-12.58,0-24.68,.23-36.76-.11-5.2-.14-6.75,1.48-6.73,6.7,.16,48.72,.07,97.44,.08,146.16,0,2.88,.31,5.75,.47,8.74h42.55v-64.56c2,1.59,3.5,2.62,4.82,3.85,20.62,19.26,41.16,38.62,61.93,57.71,2.19,2.01,5.76,3.44,8.73,3.5,15.67,.31,31.36,.11,47.04,.05,2.18,0,4.36-.25,8.17-.49-28.69-25.93-56.2-50.78-84.34-76.21Zm788.27-27.95c1.35,2.4,2.4,4.16,3.35,5.96,16.38,31.3,32.84,62.56,48.98,93.98,2.1,4.08,4.57,5.21,8.78,5.13,11.5-.2,23-.07,34.5-.07,3,0,6,0,9.65,0-.89-2.13-1.22-3.1-1.68-4.01-26.15-51.41-52.28-102.84-78.61-154.16-.89-1.74-3.66-3.5-5.61-3.57-10.65-.38-21.32-.07-31.98-.34-5.12-.13-7.83,2.1-10.18,6.5-23,43.17-46.2,86.24-69.34,129.34-4.5,8.39-9.02,16.76-13.98,25.98,15.71,0,30.47,.11,45.23-.17,1.49-.03,3.39-2.21,4.32-3.83,7.73-13.4,15.33-26.87,22.89-40.37,11.12-19.86,22.19-39.76,33.67-60.37Zm-502.2,104.77c14.52,0,27.67-.15,40.81,.08,4.59,.08,7.13-1.73,9.28-5.67,12.65-23.09,25.5-46.06,38.32-69.05,5.55-9.96,11.18-19.87,17.18-30.52,1.7,2.75,2.99,4.61,4.06,6.58,15.68,28.82,31.8,57.41,46.72,86.62,4.64,9.09,9.65,13.03,19.92,12.18,11.32-.94,22.79-.21,35.77-.21-6.15-11.8-11.55-22.1-16.89-32.43-21.2-41.02-42.43-82.02-63.47-123.13-2.26-4.42-4.79-6.67-10.01-6.47-9.6,.36-19.24,.33-28.84,0-5.37-.19-8.22,2-10.63,6.68-15.57,30.28-31.29,60.48-47.21,90.58-11.21,21.2-22.8,42.2-35.02,64.77Zm-491.78-105.21c1.78,3.02,3.19,5.24,4.44,7.56,16.59,30.72,33.12,61.48,49.83,92.14,1.16,2.12,3.52,5.03,5.39,5.08,14.76,.42,29.53,.23,45.33,.23-2-4.13-3.47-7.31-5.07-10.41-4.8-9.28-9.7-18.51-14.46-27.81-20.28-39.63-40.46-79.31-60.93-118.84-1.13-2.18-4.57-4.28-7.05-4.42-9.8-.54-19.65-.07-29.47-.42-5.69-.2-8.86,1.81-11.66,7.03-25.24,47.17-50.83,94.15-76.33,141.19-2.26,4.17-4.59,8.31-7.46,13.49,15.85,0,30.6,.11,45.34-.16,1.54-.03,3.56-1.99,4.47-3.57,10.48-18.08,20.81-36.25,31.15-54.42,8.58-15.07,17.12-30.16,26.49-46.67Z"/><g><path class="f" d="M920.05,149.25l37.86,65.57h-80.5l37.86-65.57c1.06-1.84,3.72-1.84,4.79,0Z"/><path class="f" d="M1517.92,149.25l37.86,65.57h-80.5l37.86-65.57c1.06-1.84,3.72-1.84,4.79,0Z"/></g><g><path class="d" d="M888.82,309.87v-39.56h13.63c3.08,0,5.42,.19,7.04,.57,2.27,.52,4.2,1.47,5.8,2.83,2.09,1.76,3.65,4.02,4.68,6.76,1.03,2.74,1.55,5.88,1.55,9.4,0,3.01-.35,5.67-1.05,7.99-.7,2.32-1.6,4.24-2.7,5.76-1.1,1.52-2.3,2.72-3.6,3.59-1.3,.87-2.88,1.53-4.72,1.98-1.84,.45-3.96,.67-6.35,.67h-14.27Zm5.23-4.67h8.45c2.61,0,4.65-.24,6.14-.73s2.67-1.17,3.55-2.05c1.24-1.24,2.21-2.91,2.9-5.01,.69-2.09,1.04-4.64,1.04-7.62,0-4.14-.68-7.32-2.04-9.54-1.36-2.22-3.01-3.71-4.95-4.47-1.4-.54-3.66-.81-6.77-.81h-8.31v30.22Z"/><path class="d" d="M965.54,309.87v-39.56h5.23v39.56h-5.23Z"/><path class="d" d="M1034.43,294.36v-4.64l16.76-.03v14.68c-2.57,2.05-5.23,3.59-7.96,4.63-2.74,1.03-5.54,1.55-8.42,1.55-3.89,0-7.42-.83-10.59-2.5-3.18-1.66-5.57-4.07-7.19-7.22-1.62-3.15-2.43-6.67-2.43-10.55s.8-7.44,2.42-10.78c1.61-3.34,3.93-5.82,6.95-7.43s6.5-2.43,10.44-2.43c2.86,0,5.45,.46,7.76,1.39,2.31,.93,4.12,2.22,5.44,3.87,1.31,1.66,2.31,3.81,3,6.48l-4.72,1.3c-.59-2.01-1.33-3.6-2.21-4.75-.88-1.15-2.14-2.07-3.78-2.77-1.64-.69-3.45-1.04-5.45-1.04-2.39,0-4.46,.36-6.21,1.09-1.75,.73-3.15,1.69-4.22,2.87-1.07,1.19-1.9,2.49-2.5,3.91-1.01,2.45-1.51,5.1-1.51,7.96,0,3.53,.61,6.48,1.82,8.85,1.21,2.37,2.98,4.14,5.3,5.29,2.32,1.15,4.78,1.73,7.39,1.73,2.27,0,4.48-.44,6.64-1.31,2.16-.87,3.79-1.8,4.91-2.79v-7.37h-11.63Z"/><path class="d" d="M1095.72,309.87v-39.56h5.23v39.56h-5.23Z"/><path class="d" d="M1156.17,309.87v-34.89h-13.03v-4.67h31.36v4.67h-13.09v34.89h-5.23Z"/><path class="d" d="M1207.34,309.87l15.19-39.56h5.64l16.19,39.56h-5.96l-4.61-11.98h-16.54l-4.34,11.98h-5.56Zm11.41-16.24h13.41l-4.13-10.96c-1.26-3.33-2.2-6.06-2.81-8.2-.5,2.54-1.21,5.06-2.13,7.56l-4.34,11.6Z"/><path class="d" d="M1284.25,309.87v-39.56h5.23v34.89h19.48v4.67h-24.72Z"/><path class="d" d="M1352.01,309.87v-39.56h5.23v39.56h-5.23Z"/><path class="d" d="M1400.61,297.17l4.94-.43c.23,1.98,.78,3.6,1.63,4.87,.85,1.27,2.18,2.29,3.98,3.08,1.8,.78,3.82,1.17,6.07,1.17,2,0,3.76-.3,5.29-.89,1.53-.59,2.67-1.41,3.41-2.44,.75-1.03,1.12-2.16,1.12-3.39s-.36-2.32-1.08-3.25c-.72-.93-1.91-1.7-3.56-2.33-1.06-.41-3.41-1.06-7.04-1.93-3.63-.87-6.18-1.7-7.64-2.47-1.89-.99-3.3-2.22-4.22-3.68-.93-1.47-1.39-3.11-1.39-4.92,0-2,.57-3.86,1.7-5.6,1.13-1.74,2.79-3.05,4.97-3.95,2.18-.9,4.6-1.35,7.26-1.35,2.93,0,5.52,.47,7.76,1.42s3.96,2.33,5.17,4.17c1.2,1.83,1.85,3.91,1.94,6.23l-5.02,.38c-.27-2.5-1.18-4.39-2.74-5.67-1.56-1.28-3.86-1.92-6.89-1.92s-5.47,.58-6.92,1.74c-1.45,1.16-2.17,2.56-2.17,4.2,0,1.42,.51,2.59,1.54,3.51,1.01,.92,3.64,1.86,7.89,2.82,4.25,.96,7.17,1.8,8.76,2.52,2.3,1.06,4,2.41,5.1,4.03,1.1,1.63,1.65,3.5,1.65,5.63s-.6,4.09-1.81,5.95c-1.21,1.86-2.94,3.31-5.19,4.34-2.26,1.03-4.8,1.55-7.62,1.55-3.58,0-6.58-.52-9-1.57-2.42-1.04-4.32-2.61-5.69-4.71-1.38-2.09-2.1-4.47-2.17-7.11Z"/><path class="d" d="M1470.83,309.87l15.19-39.56h5.64l16.19,39.56h-5.96l-4.61-11.98h-16.54l-4.34,11.98h-5.56Zm11.41-16.24h13.41l-4.13-10.96c-1.26-3.33-2.2-6.06-2.81-8.2-.5,2.54-1.21,5.06-2.13,7.56l-4.34,11.6Z"/><path class="d" d="M1553.92,309.87v-34.89h-13.03v-4.67h31.36v4.67h-13.09v34.89h-5.23Z"/><path class="d" d="M1614.43,309.87v-39.56h5.23v39.56h-5.23Z"/><path class="d" d="M1663.22,290.61c0-6.57,1.76-11.71,5.29-15.42,3.53-3.71,8.08-5.57,13.65-5.57,3.65,0,6.94,.87,9.88,2.62,2.93,1.75,5.17,4.18,6.71,7.3,1.54,3.12,2.31,6.66,2.31,10.62s-.81,7.6-2.43,10.77c-1.62,3.17-3.91,5.56-6.88,7.19-2.97,1.63-6.17,2.44-9.61,2.44-3.72,0-7.05-.9-9.98-2.7-2.93-1.8-5.15-4.25-6.67-7.37-1.51-3.11-2.27-6.4-2.27-9.88Zm5.4,.08c0,4.77,1.28,8.52,3.85,11.27,2.56,2.74,5.78,4.12,9.65,4.12s7.18-1.38,9.73-4.16c2.55-2.77,3.82-6.7,3.82-11.79,0-3.22-.54-6.03-1.63-8.43-1.09-2.4-2.68-4.26-4.78-5.59-2.1-1.32-4.45-1.98-7.06-1.98-3.71,0-6.89,1.27-9.57,3.82-2.67,2.55-4.01,6.8-4.01,12.75Z"/><path class="d" d="M1743.67,309.87v-39.56h5.37l20.78,31.06v-31.06h5.02v39.56h-5.37l-20.78-31.09v31.09h-5.02Z"/></g><g><path class="d" d="M759.4,392.54l3.57,.9c-.75,2.93-2.09,5.17-4.04,6.71-1.94,1.54-4.32,2.31-7.13,2.31s-5.27-.59-7.09-1.77c-1.82-1.18-3.21-2.9-4.16-5.14s-1.43-4.65-1.43-7.23c0-2.81,.54-5.26,1.61-7.35,1.07-2.09,2.6-3.68,4.58-4.77,1.98-1.08,4.16-1.63,6.54-1.63,2.7,0,4.97,.69,6.81,2.06,1.84,1.37,3.12,3.31,3.85,5.8l-3.51,.83c-.63-1.96-1.53-3.39-2.72-4.29-1.19-.9-2.69-1.34-4.49-1.34-2.07,0-3.81,.5-5.2,1.49-1.39,.99-2.37,2.33-2.93,4-.56,1.68-.85,3.4-.85,5.18,0,2.29,.33,4.3,1,6.01,.67,1.71,1.71,2.99,3.12,3.84s2.94,1.27,4.58,1.27c2,0,3.69-.58,5.08-1.73s2.32-2.86,2.81-5.13Z"/><path class="d" d="M785.89,401.99v-26.97h11.96c2.4,0,4.23,.24,5.48,.73,1.25,.49,2.25,1.34,3,2.57,.75,1.23,1.12,2.58,1.12,4.07,0,1.91-.62,3.53-1.86,4.84s-3.15,2.15-5.74,2.5c.94,.45,1.66,.9,2.15,1.34,1.04,.96,2.03,2.15,2.96,3.59l4.69,7.34h-4.49l-3.57-5.61c-1.04-1.62-1.9-2.86-2.58-3.72s-1.28-1.46-1.81-1.8-1.08-.58-1.63-.72c-.4-.09-1.07-.13-1.99-.13h-4.14v11.98h-3.57Zm3.57-15.07h7.67c1.63,0,2.91-.17,3.83-.51,.92-.34,1.62-.88,2.1-1.62,.48-.74,.72-1.55,.72-2.42,0-1.28-.46-2.32-1.39-3.15s-2.39-1.23-4.39-1.23h-8.54v8.92Z"/><path class="d" d="M831.4,401.99v-26.97h5.37l6.38,19.1c.59,1.78,1.02,3.11,1.29,3.99,.31-.98,.78-2.42,1.44-4.32l6.46-18.77h4.8v26.97h-3.44v-22.57l-7.84,22.57h-3.22l-7.8-22.96v22.96h-3.44Z"/><path class="f" d="M907.77,388.78c0-1.73,.62-3.21,1.85-4.43s2.7-1.83,4.42-1.83,3.22,.61,4.45,1.83c1.23,1.22,1.85,2.7,1.85,4.43s-.62,3.22-1.85,4.45c-1.23,1.23-2.71,1.85-4.45,1.85s-3.19-.61-4.42-1.85c-1.23-1.23-1.85-2.71-1.85-4.45Z"/><path class="d" d="M970.95,401.99v-26.97h19.5v3.18h-15.93v8.26h14.92v3.16h-14.92v9.18h16.56v3.18h-20.13Z"/><path class="d" d="M1014.53,401.99v-26.97h11.96c2.4,0,4.23,.24,5.48,.73,1.25,.49,2.25,1.34,3,2.57s1.12,2.58,1.12,4.07c0,1.91-.62,3.53-1.86,4.84s-3.15,2.15-5.74,2.5c.94,.45,1.66,.9,2.15,1.34,1.04,.96,2.03,2.15,2.96,3.59l4.69,7.34h-4.49l-3.57-5.61c-1.04-1.62-1.9-2.86-2.58-3.72s-1.28-1.46-1.81-1.8c-.53-.34-1.08-.58-1.63-.72-.4-.09-1.07-.13-1.99-.13h-4.14v11.98h-3.57Zm3.57-15.07h7.67c1.63,0,2.91-.17,3.83-.51,.92-.34,1.62-.88,2.1-1.62,.48-.74,.72-1.55,.72-2.42,0-1.28-.46-2.32-1.39-3.15s-2.39-1.23-4.39-1.23h-8.54v8.92Z"/><path class="d" d="M1060.15,401.99v-26.97h10.17c1.79,0,3.16,.09,4.1,.26,1.32,.22,2.43,.64,3.33,1.26s1.62,1.49,2.16,2.6c.54,1.12,.82,2.34,.82,3.68,0,2.29-.73,4.24-2.19,5.82-1.46,1.59-4.1,2.38-7.91,2.38h-6.92v10.97h-3.57Zm3.57-14.15h6.97c2.31,0,3.94-.43,4.91-1.29s1.45-2.07,1.45-3.62c0-1.13-.29-2.09-.85-2.9-.57-.8-1.32-1.33-2.25-1.59-.6-.16-1.71-.24-3.33-.24h-6.9v9.64Z"/><path class="f" d="M1129.48,388.78c0-1.73,.61-3.21,1.84-4.43,1.23-1.22,2.71-1.83,4.42-1.83s3.22,.61,4.45,1.83,1.85,2.7,1.85,4.43-.62,3.22-1.85,4.45c-1.23,1.23-2.71,1.85-4.45,1.85s-3.19-.61-4.42-1.85c-1.23-1.23-1.84-2.71-1.84-4.45Z"/><path class="d" d="M1192.43,401.99v-26.97h10.12c2.06,0,3.71,.27,4.96,.82s2.22,1.39,2.93,2.52c.7,1.14,1.06,2.32,1.06,3.56,0,1.15-.31,2.24-.94,3.26s-1.57,1.84-2.83,2.47c1.63,.48,2.88,1.29,3.76,2.45,.88,1.15,1.32,2.51,1.32,4.08,0,1.26-.27,2.44-.8,3.52-.53,1.08-1.19,1.92-1.98,2.51s-1.77,1.03-2.95,1.33c-1.18,.3-2.63,.45-4.35,.45h-10.28Zm3.57-15.64h5.83c1.58,0,2.72-.1,3.4-.31,.91-.27,1.59-.72,2.05-1.34,.46-.63,.69-1.41,.69-2.35,0-.9-.21-1.68-.64-2.36-.43-.68-1.04-1.15-1.84-1.4-.8-.25-2.16-.38-4.1-.38h-5.39v8.15Zm0,12.46h6.72c1.15,0,1.96-.04,2.43-.13,.82-.15,1.51-.39,2.06-.74s1.01-.84,1.36-1.5,.53-1.41,.53-2.27c0-1.01-.26-1.88-.77-2.62s-1.23-1.26-2.14-1.57c-.91-.3-2.23-.45-3.95-.45h-6.24v9.27Z"/><path class="d" d="M1253.87,375.02h3.57v15.58c0,2.71-.31,4.86-.92,6.46-.61,1.59-1.72,2.89-3.32,3.89-1.6,1-3.7,1.5-6.3,1.5s-4.59-.44-6.2-1.31-2.75-2.13-3.44-3.78-1.03-3.9-1.03-6.76v-15.58h3.57v15.56c0,2.34,.22,4.07,.65,5.18,.43,1.11,1.18,1.97,2.24,2.57,1.06,.6,2.36,.9,3.89,.9,2.62,0,4.5-.59,5.61-1.78,1.12-1.19,1.67-3.48,1.67-6.86v-15.56Z"/><path class="d" d="M1280.63,393.33l3.37-.29c.16,1.35,.53,2.46,1.11,3.32,.58,.87,1.49,1.57,2.71,2.1,1.23,.53,2.61,.8,4.14,.8,1.36,0,2.56-.2,3.61-.61s1.82-.96,2.33-1.67c.51-.7,.76-1.47,.76-2.31s-.25-1.58-.74-2.22c-.49-.63-1.3-1.16-2.43-1.59-.72-.28-2.32-.72-4.8-1.32-2.48-.59-4.21-1.16-5.21-1.68-1.29-.67-2.25-1.51-2.88-2.51-.63-1-.95-2.12-.95-3.36,0-1.36,.39-2.63,1.16-3.82,.77-1.18,1.9-2.08,3.39-2.69s3.13-.92,4.95-.92c2,0,3.76,.32,5.29,.97,1.53,.65,2.7,1.59,3.52,2.84,.82,1.25,1.26,2.67,1.32,4.25l-3.42,.26c-.18-1.7-.81-2.99-1.87-3.86s-2.63-1.31-4.7-1.31-3.73,.39-4.72,1.19c-.99,.79-1.48,1.74-1.48,2.86,0,.97,.35,1.77,1.05,2.39,.69,.63,2.48,1.27,5.38,1.92,2.9,.66,4.89,1.23,5.97,1.72,1.57,.72,2.73,1.64,3.48,2.75,.75,1.11,1.12,2.39,1.12,3.84s-.41,2.79-1.23,4.06c-.82,1.27-2,2.26-3.54,2.96-1.54,.71-3.27,1.06-5.2,1.06-2.44,0-4.49-.36-6.14-1.07s-2.94-1.78-3.88-3.21c-.94-1.43-1.43-3.05-1.48-4.85Z"/><path class="d" d="M1326.05,401.99v-26.97h3.57v26.97h-3.57Z"/><path class="d" d="M1354.34,401.99v-26.97h3.66l14.17,21.18v-21.18h3.42v26.97h-3.66l-14.17-21.19v21.19h-3.42Z"/><path class="d" d="M1400.12,401.99v-26.97h19.5v3.18h-15.93v8.26h14.92v3.16h-14.92v9.18h16.56v3.18h-20.13Z"/><path class="d" d="M1442.43,393.33l3.37-.29c.16,1.35,.53,2.46,1.11,3.32,.58,.87,1.49,1.57,2.71,2.1,1.23,.53,2.61,.8,4.14,.8,1.36,0,2.56-.2,3.61-.61s1.82-.96,2.33-1.67c.51-.7,.76-1.47,.76-2.31s-.25-1.58-.74-2.22c-.49-.63-1.3-1.16-2.43-1.59-.72-.28-2.32-.72-4.8-1.32-2.48-.59-4.21-1.16-5.21-1.68-1.29-.67-2.25-1.51-2.88-2.51-.63-1-.95-2.12-.95-3.36,0-1.36,.39-2.63,1.16-3.82,.77-1.18,1.9-2.08,3.39-2.69s3.13-.92,4.95-.92c2,0,3.76,.32,5.29,.97,1.53,.65,2.7,1.59,3.52,2.84,.82,1.25,1.26,2.67,1.32,4.25l-3.42,.26c-.18-1.7-.81-2.99-1.87-3.86s-2.63-1.31-4.7-1.31-3.73,.39-4.72,1.19c-.99,.79-1.48,1.74-1.48,2.86,0,.97,.35,1.77,1.05,2.39,.69,.63,2.48,1.27,5.38,1.92,2.9,.66,4.89,1.23,5.97,1.72,1.57,.72,2.73,1.64,3.48,2.75,.75,1.11,1.12,2.39,1.12,3.84s-.41,2.79-1.23,4.06c-.82,1.27-2,2.26-3.54,2.96-1.54,.71-3.27,1.06-5.2,1.06-2.44,0-4.49-.36-6.14-1.07s-2.94-1.78-3.88-3.21c-.94-1.43-1.43-3.05-1.48-4.85Z"/><path class="d" d="M1486.03,393.33l3.37-.29c.16,1.35,.53,2.46,1.11,3.32,.58,.87,1.49,1.57,2.71,2.1,1.23,.53,2.61,.8,4.14,.8,1.36,0,2.56-.2,3.61-.61s1.82-.96,2.33-1.67c.51-.7,.76-1.47,.76-2.31s-.25-1.58-.74-2.22c-.49-.63-1.3-1.16-2.43-1.59-.72-.28-2.32-.72-4.8-1.32-2.48-.59-4.21-1.16-5.21-1.68-1.29-.67-2.25-1.51-2.88-2.51-.63-1-.95-2.12-.95-3.36,0-1.36,.39-2.63,1.16-3.82,.77-1.18,1.9-2.08,3.39-2.69s3.13-.92,4.95-.92c2,0,3.76,.32,5.29,.97,1.53,.65,2.7,1.59,3.52,2.84,.82,1.25,1.26,2.67,1.32,4.25l-3.42,.26c-.18-1.7-.81-2.99-1.87-3.86s-2.63-1.31-4.7-1.31-3.73,.39-4.72,1.19c-.99,.79-1.48,1.74-1.48,2.86,0,.97,.35,1.77,1.05,2.39,.69,.63,2.48,1.27,5.38,1.92,2.9,.66,4.89,1.23,5.97,1.72,1.57,.72,2.73,1.64,3.48,2.75,.75,1.11,1.12,2.39,1.12,3.84s-.41,2.79-1.23,4.06c-.82,1.27-2,2.26-3.54,2.96-1.54,.71-3.27,1.06-5.2,1.06-2.44,0-4.49-.36-6.14-1.07s-2.94-1.78-3.88-3.21c-.94-1.43-1.43-3.05-1.48-4.85Z"/><path class="d" d="M1558.55,393.33l3.37-.29c.16,1.35,.53,2.46,1.11,3.32,.58,.87,1.49,1.57,2.71,2.1,1.23,.53,2.61,.8,4.14,.8,1.36,0,2.56-.2,3.61-.61s1.82-.96,2.33-1.67c.51-.7,.76-1.47,.76-2.31s-.25-1.58-.74-2.22c-.49-.63-1.3-1.16-2.43-1.59-.72-.28-2.32-.72-4.8-1.32-2.48-.59-4.21-1.16-5.21-1.68-1.29-.67-2.25-1.51-2.88-2.51-.63-1-.95-2.12-.95-3.36,0-1.36,.39-2.63,1.16-3.82,.77-1.18,1.9-2.08,3.39-2.69s3.13-.92,4.95-.92c2,0,3.76,.32,5.29,.97,1.53,.65,2.7,1.59,3.52,2.84,.82,1.25,1.26,2.67,1.32,4.25l-3.42,.26c-.18-1.7-.81-2.99-1.87-3.86s-2.63-1.31-4.7-1.31-3.73,.39-4.72,1.19c-.99,.79-1.48,1.74-1.48,2.86,0,.97,.35,1.77,1.05,2.39,.69,.63,2.48,1.27,5.38,1.92,2.9,.66,4.89,1.23,5.97,1.72,1.57,.72,2.73,1.64,3.48,2.75,.75,1.11,1.12,2.39,1.12,3.84s-.41,2.79-1.23,4.06c-.82,1.27-2,2.26-3.54,2.96-1.54,.71-3.27,1.06-5.2,1.06-2.44,0-4.49-.36-6.14-1.07s-2.94-1.78-3.88-3.21c-.94-1.43-1.43-3.05-1.48-4.85Z"/><path class="d" d="M1602.28,388.86c0-4.48,1.2-7.98,3.61-10.51s5.51-3.8,9.31-3.8c2.49,0,4.73,.59,6.73,1.78s3.52,2.85,4.57,4.98c1.05,2.13,1.57,4.54,1.57,7.24s-.55,5.18-1.66,7.34c-1.1,2.16-2.67,3.79-4.69,4.9-2.02,1.11-4.21,1.66-6.55,1.66-2.54,0-4.81-.61-6.81-1.84-2-1.23-3.51-2.9-4.54-5.02s-1.55-4.37-1.55-6.73Zm3.68,.06c0,3.25,.87,5.81,2.62,7.68,1.75,1.87,3.94,2.81,6.58,2.81s4.9-.94,6.63-2.83c1.74-1.89,2.6-4.57,2.6-8.04,0-2.2-.37-4.11-1.11-5.75-.74-1.64-1.83-2.91-3.26-3.81-1.43-.9-3.03-1.35-4.81-1.35-2.53,0-4.7,.87-6.52,2.6-1.82,1.74-2.73,4.63-2.73,8.69Z"/><path class="d" d="M1712.43,375.02h3.57v15.58c0,2.71-.31,4.86-.92,6.46-.61,1.59-1.72,2.89-3.32,3.89-1.6,1-3.7,1.5-6.3,1.5s-4.59-.44-6.2-1.31-2.75-2.13-3.44-3.78-1.03-3.9-1.03-6.76v-15.58h3.57v15.56c0,2.34,.22,4.07,.65,5.18,.43,1.11,1.18,1.97,2.24,2.57,1.06,.6,2.36,.9,3.89,.9,2.62,0,4.5-.59,5.61-1.78s1.67-3.48,1.67-6.86v-15.56Z"/><path class="d" d="M1747.27,401.99v-23.79h-8.89v-3.18h21.38v3.18h-8.92v23.79h-3.57Z"/><path class="d" d="M1782.49,401.99v-26.97h3.57v26.97h-3.57Z"/><path class="d" d="M1809.73,388.86c0-4.48,1.2-7.98,3.61-10.51s5.51-3.8,9.31-3.8c2.49,0,4.73,.59,6.73,1.78s3.52,2.85,4.57,4.98c1.05,2.13,1.57,4.54,1.57,7.24s-.55,5.18-1.66,7.34-2.67,3.79-4.69,4.9-4.21,1.66-6.55,1.66c-2.54,0-4.81-.61-6.81-1.84s-3.51-2.9-4.54-5.02-1.55-4.37-1.55-6.73Zm3.68,.06c0,3.25,.87,5.81,2.62,7.68,1.75,1.87,3.94,2.81,6.58,2.81s4.9-.94,6.63-2.83,2.6-4.57,2.6-8.04c0-2.2-.37-4.11-1.11-5.75-.74-1.64-1.83-2.91-3.26-3.81-1.43-.9-3.03-1.35-4.81-1.35-2.53,0-4.7,.87-6.52,2.6-1.82,1.74-2.73,4.63-2.73,8.69Z"/><path class="d" d="M1858.55,401.99v-26.97h3.66l14.17,21.18v-21.18h3.42v26.97h-3.66l-14.17-21.19v21.19h-3.42Z"/><path class="d" d="M1903.05,393.33l3.37-.29c.16,1.35,.53,2.46,1.11,3.32,.58,.87,1.49,1.57,2.71,2.1,1.23,.53,2.61,.8,4.14,.8,1.36,0,2.56-.2,3.61-.61s1.82-.96,2.33-1.67c.51-.7,.76-1.47,.76-2.31s-.25-1.58-.74-2.22c-.49-.63-1.3-1.16-2.43-1.59-.72-.28-2.32-.72-4.8-1.32-2.48-.59-4.21-1.16-5.21-1.68-1.29-.67-2.25-1.51-2.88-2.51-.63-1-.95-2.12-.95-3.36,0-1.36,.39-2.63,1.16-3.82,.77-1.18,1.9-2.08,3.39-2.69s3.13-.92,4.95-.92c2,0,3.76,.32,5.29,.97,1.53,.65,2.7,1.59,3.52,2.84s1.26,2.67,1.32,4.25l-3.42,.26c-.18-1.7-.81-2.99-1.87-3.86s-2.63-1.31-4.7-1.31-3.73,.39-4.72,1.19c-.99,.79-1.48,1.74-1.48,2.86,0,.97,.35,1.77,1.05,2.39,.69,.63,2.48,1.27,5.38,1.92,2.9,.66,4.89,1.23,5.97,1.72,1.57,.72,2.73,1.64,3.48,2.75,.75,1.11,1.12,2.39,1.12,3.84s-.41,2.79-1.23,4.06c-.82,1.27-2,2.26-3.54,2.96-1.54,.71-3.27,1.06-5.2,1.06-2.44,0-4.49-.36-6.14-1.07s-2.94-1.78-3.88-3.21c-.94-1.43-1.43-3.05-1.48-4.85Z"/><path class="d" d="M1650.98,401.98v-26.96h3.57v23.78h13.28v3.18h-16.84Z"/></g><line class="e" x1="857.48" y1="290.95" x2="648.39" y2="290.95"/><line class="e" x1="2015.53" y1="290.95" x2="1806.71" y2="290.95"/></g></g></g></g></svg>